<?xml version="1.0" standalone="no"?>
<!DOCTYPE svg PUBLIC "-//W3C//DTD SVG 20010904//EN"
 "http://www.w3.org/TR/2001/REC-SVG-20010904/DTD/svg10.dtd">
<svg version="1.0" xmlns="http://www.w3.org/2000/svg"
 width="710.000000pt" height="394.000000pt" viewBox="0 0 710.000000 394.000000"
 preserveAspectRatio="xMidYMid meet">

<g transform="translate(0.000000,394.000000) scale(0.100000,-0.100000)"
fill="#000000" stroke="none">
<path d="M2183 3213 c9 -2 23 -2 30 0 6 3 -1 5 -18 5 -16 0 -22 -2 -12 -5z"/>
<path d="M2302 3110 c0 -14 2 -19 5 -12 2 6 2 18 0 25 -3 6 -5 1 -5 -13z"/>
<path d="M1840 2593 l-95 -98 98 95 c53 52 97 96 97 97 0 8 -12 -4 -100 -94z"/>
<path d="M795 2571 c-43 -19 -70 -60 -70 -107 0 -43 2 -46 145 -186 l145 -143
-131 135 c-73 74 -137 146 -144 159 -16 31 -5 83 23 108 28 27 76 37 110 24
15 -6 82 -63 149 -128 118 -112 119 -113 28 -19 -52 53 -112 111 -132 127 -40
32 -90 44 -123 30z"/>
<path d="M1505 2259 c-127 -127 -243 -237 -260 -245 -16 -7 -23 -13 -15 -14 9
0 24 6 35 14 14 10 388 382 474 472 2 2 2 4 0 4 -2 0 -108 -104 -234 -231z"/>
<path d="M1132 2024 c10 -10 20 -15 24 -12 3 4 -5 12 -18 18 -22 12 -22 12 -6
-6z"/>
<path d="M1178 2003 c6 -2 18 -2 25 0 6 3 1 5 -13 5 -14 0 -19 -2 -12 -5z"/>
<path d="M5925 1670 c-27 -4 -66 -14 -85 -22 -41 -18 -103 -75 -94 -89 3 -5 1
-9 -4 -9 -18 0 -44 -85 -49 -162 l-6 -78 -73 0 -74 0 0 -77 0 -78 75 3 75 4 0
-386 0 -386 98 0 97 0 -3 385 -2 385 120 0 120 0 0 75 0 75 -120 0 -120 0 0
50 c0 28 7 67 17 88 9 20 17 40 17 45 1 4 4 7 9 7 4 0 20 6 37 15 36 19 90 19
134 1 l33 -14 9 74 10 73 -46 10 c-73 16 -122 19 -175 11z"/>
<path d="M5254 1656 c-42 -19 -64 -52 -64 -99 0 -75 40 -116 112 -117 38 0 54
6 78 28 61 53 48 152 -24 186 -41 19 -61 20 -102 2z"/>
<path d="M525 1636 c-86 -17 -181 -52 -205 -76 -10 -10 -21 -16 -24 -13 -3 3
-8 -2 -12 -11 -3 -9 -10 -13 -15 -10 -19 11 -144 -131 -186 -212 -53 -102 -73
-183 -73 -304 0 -187 61 -341 186 -468 41 -41 77 -73 80 -70 3 3 16 -4 30 -17
50 -46 222 -95 337 -95 82 0 198 29 285 71 157 76 282 234 327 414 19 77 19
243 0 320 -38 152 -143 299 -275 384 -124 80 -308 115 -455 87z m218 -181 c32
-8 74 -23 95 -34 38 -20 159 -121 145 -121 -4 0 1 -7 11 -15 11 -8 17 -15 13
-15 -3 0 7 -28 23 -62 51 -110 56 -254 15 -379 -10 -30 -18 -55 -17 -56 1 -2
-5 -11 -13 -20 -38 -45 -73 -89 -76 -98 -2 -5 -7 -9 -11 -8 -4 2 -17 -10 -28
-25 -12 -15 -24 -25 -26 -22 -2 3 -12 -3 -24 -12 -11 -10 -20 -16 -20 -14 0 2
-21 -4 -47 -14 -145 -55 -314 -22 -427 83 -25 24 -49 41 -54 38 -4 -3 -4 -2 0
2 3 5 -7 30 -23 55 -46 72 -69 161 -69 261 0 143 44 256 134 347 107 107 254
147 399 109z m348 -2 c13 -16 12 -17 -3 -4 -17 13 -22 21 -14 21 2 0 10 -8 17
-17z"/>
<path d="M4290 1015 l0 -625 375 0 375 0 0 85 0 85 -282 0 -283 0 3 540 2 540
-95 0 -95 0 0 -625z"/>
<path d="M1807 1316 c-73 -26 -156 -97 -154 -131 0 -5 -6 -11 -14 -13 -11 -2
-13 11 -11 70 l3 73 -100 0 -101 0 0 -467 0 -468 100 0 100 0 0 268 c0 255 2
278 31 381 2 8 15 26 30 40 15 16 17 20 5 11 -21 -15 -21 -15 -2 7 10 12 21
22 25 21 3 -1 28 9 55 21 40 19 62 22 127 19 l79 -3 0 86 c0 81 -1 87 -22 93
-38 10 -111 6 -151 -8z m-97 -70 c0 -2 -8 -10 -17 -17 -16 -13 -17 -12 -4 4
13 16 21 21 21 13z"/>
<path d="M2404 1320 c-64 -13 -130 -48 -185 -98 -27 -24 -48 -47 -45 -49 2 -2
-6 -14 -19 -27 -55 -55 -92 -235 -75 -367 13 -109 43 -180 102 -244 27 -30 54
-52 59 -49 5 3 9 0 9 -5 0 -18 99 -62 174 -77 47 -10 91 -13 131 -8 66 7 135
31 135 46 0 5 5 6 10 3 6 -4 35 19 65 50 l55 56 0 -84 c0 -141 -39 -225 -123
-269 -57 -29 -183 -36 -258 -14 -48 14 -142 75 -139 91 1 3 0 9 -2 14 -4 11
-178 -9 -178 -21 0 -15 48 -102 72 -130 118 -135 396 -177 583 -88 118 56 203
173 225 306 6 33 10 263 10 512 l0 452 -95 0 -95 0 0 -75 c0 -41 -2 -75 -5
-75 -2 0 -27 23 -55 51 -69 69 -144 102 -240 105 -41 2 -93 -1 -116 -6z m347
-97 c13 -16 12 -17 -3 -4 -10 7 -18 15 -18 17 0 8 8 3 21 -13z m-81 -84 c25
-13 50 -22 55 -20 6 1 7 0 4 -4 -4 -3 5 -18 18 -33 68 -72 93 -227 54 -337
-12 -33 -22 -64 -24 -70 -1 -5 -24 -29 -52 -52 -113 -98 -267 -95 -366 7 -61
62 -83 127 -83 240 0 67 5 96 23 138 29 64 97 127 160 147 64 20 155 14 211
-16z"/>
<path d="M3503 1320 c-114 -24 -190 -77 -232 -161 -36 -71 -39 -94 -13 -96 10
-1 46 -7 80 -13 65 -11 82 -8 82 15 0 24 59 83 93 94 60 18 112 22 167 11 98
-19 153 -74 162 -160 3 -32 0 -35 -32 -46 -20 -7 -121 -26 -225 -43 -156 -26
-201 -37 -255 -64 -88 -44 -123 -99 -128 -203 -3 -41 1 -89 8 -109 13 -40 77
-118 90 -110 4 3 10 -1 13 -9 18 -47 261 -69 362 -33 60 21 145 82 152 108 6
21 35 27 32 7 -1 -7 -1 -37 0 -65 l1 -53 85 0 85 0 0 303 c0 175 -5 328 -11
363 -12 65 -50 143 -83 171 l-21 18 19 -25 c11 -14 2 -7 -20 16 -57 60 -133
85 -264 90 -58 2 -124 -1 -147 -6z m335 -550 c-4 -33 -17 -78 -28 -100 -11
-22 -18 -40 -15 -40 12 0 -73 -69 -105 -85 -21 -11 -65 -20 -111 -23 -89 -5
-140 13 -171 62 -18 29 -19 55 -7 133 1 7 25 24 53 38 44 23 187 50 382 74 7
1 8 -17 2 -59z"/>
<path d="M6508 1311 c-31 -10 -76 -30 -100 -44 -44 -26 -129 -107 -113 -107 5
0 0 -7 -11 -15 -10 -8 -16 -15 -11 -15 4 0 -2 -9 -13 -20 -36 -36 -64 -154
-64 -270 0 -87 5 -117 26 -178 63 -177 200 -277 398 -289 146 -9 259 28 352
115 47 44 106 128 96 138 -3 2 -42 12 -87 21 l-82 16 -17 -24 c-9 -13 -17 -27
-17 -31 0 -8 -15 -23 -23 -23 -4 0 -19 -9 -34 -19 -36 -24 -112 -46 -158 -46
-20 0 -61 8 -91 17 -30 9 -58 15 -64 14 -5 -1 -7 0 -4 3 3 3 -11 24 -31 45
-39 41 -70 113 -70 163 l0 28 351 0 351 0 -6 88 c-10 126 -57 272 -87 272 -6
0 -8 4 -5 8 9 14 -86 99 -139 125 -100 49 -244 61 -347 28z m222 -152 c30 -11
60 -21 65 -22 10 -2 77 -67 69 -67 -3 0 2 -13 10 -29 9 -16 17 -48 19 -72 l3
-44 -256 0 -257 0 12 45 c7 25 20 61 30 80 19 36 65 97 65 85 0 -4 7 -2 15 5
21 17 94 39 135 39 19 0 60 -9 90 -20z"/>
<path d="M5210 850 l0 -460 98 0 97 0 0 460 0 460 -97 0 -98 0 0 -460z"/>
</g>
</svg>
